<svg xmlns="http://www.w3.org/2000/svg"
shape-rendering="geometricPrecision"
width="4000" height="4000" viewBox="0 0 1024 1024">
  <metadata>null</metadata>

<path d="
M 150.414 577.768
C 155.711 577.272 161.18 577.788 166.505 577.658
C 169.041 577.597 172.611 576.967 175.02 577.782
C 174.515 582.05 175.145 586.694 175.14 591.004
C 175.128 601.094 175.252 611.198 175.168 621.283
C 180.488 622.182 186.606 621.437 192.008 621.438
C 202.688 621.441 213.391 621.613 224.066 621.417
C 224.276 621.382 224.116 619.313 224.112 619
C 224.08 616.334 224.081 613.666 224.082 610.999
C 224.087 599.876 224.057 588.749 224.104 577.628
C 229.565 577.782 235.045 577.656 240.51 577.644
C 243.059 577.638 246.103 577.218 248.587 577.779
C 248.202 585.296 248.577 592.965 248.595 600.501
C 248.63 615.001 248.666 629.502 248.634 644.002
C 248.613 653.312 248.657 662.624 248.603 671.934
C 248.577 676.348 247.857 681.141 248.437 685.515
C 248.165 685.768 247.319 685.62 246.989 685.62
C 245.492 685.62 243.996 685.653 242.5 685.654
C 236.486 685.66 230.159 686.205 224.183 685.656
C 223.901 670.854 223.583 655.824 224.041 641.043
C 212.001 640.111 199.579 640.798 187.503 640.832
C 184.504 640.841 181.505 640.865 178.506 640.889
C 177.715 640.895 175.766 640.598 175.239 641.228
C 174.924 650.636 175.106 660.09 175.126 669.503
C 175.138 674.831 174.7 680.38 175.174 685.681
C 169.476 685.479 163.709 685.649 158.001 685.649
C 155.594 685.649 153.007 685.95 150.624 685.659
C 150.112 661.137 150.525 636.532 150.591 612.003
C 150.622 600.619 150.969 589.139 150.414 577.768 Z"
opacity="1" fill="rgb(1,44,87)" fill-rule="evenodd" />
<path d="
M 261.441 414.254
C 261.144 415.108 260.133 415.298 259.333 415.596
C 257.463 416.292 255.651 417.161 253.814 417.953
C 244.932 421.787 235.97 423.015 226.359 423.37
C 222.747 423.504 219.158 423.38 215.551 423.207
C 214.45 423.154 212.382 423.016 213.021 424.882
C 209.932 424.446 206.859 423.886 203.732 423.798
C 196.584 423.597 189.628 424.275 182.46 423.449
C 179.986 423.164 173.697 423.139 173.104 419.923
C 175.758 417.819 179.092 417.816 182.331 417.382
C 191.025 416.215 198.963 417.681 207.565 418.557
C 213.192 419.13 219.294 417.779 224.923 417.36
C 233.409 416.727 241.935 416.716 250.415 416.009
C 254.038 415.708 257.853 414.143 261.441 414.254 Z"
opacity="1" fill="rgb(3,166,220)" fill-rule="evenodd" />
<path d="
M 261.441 414.254
C 261.955 413.272 264.209 412.574 265.212 412.07
C 268.758 410.287 272.167 407.827 275.833 406.339
C 276.843 406.766 278.432 405.705 279.371 405.368
C 282.083 404.395 284.874 404.124 287.73 403.958
C 295.856 403.487 303.037 406.29 309.426 411.175
C 324.278 422.532 330.038 441.657 340.595 456.356
C 347.103 465.417 356.723 471.742 368.197 468.555
C 372.162 467.453 375.406 465.108 378.482 462.455
C 385.196 456.664 390.116 449.355 394.036 441.476
C 400.982 427.519 406.061 412.723 411.737 398.228
C 415.628 388.293 419.757 377.91 426.847 369.779
C 428.528 367.85 430.416 366.205 432.556 364.806
C 434.37 363.62 436.324 362.708 438.475 362.365
C 452.791 360.083 461.509 373.703 467.328 384.477
C 468.898 387.385 469.972 390.496 471.397 393.44
C 471.643 393.949 472.159 393.84 472.37 394.178
C 472.447 394.302 472.221 395.763 472.276 396.081
C 470.962 394.956 470.293 392.306 469.277 390.822
C 465.905 385.892 462.365 380.944 456.618 378.578
C 441.736 372.452 430.634 388.387 425.185 399.964
C 416.501 418.414 410.157 437.875 400.827 456.03
C 395.129 467.119 387.656 477.914 375.109 481.473
C 364.04 484.612 354.387 477.036 347.252 469.614
C 332.256 454.013 325.936 430.83 305.878 420.134
C 287.751 410.468 270.973 426.878 253.809 430.494
C 244.913 432.369 235.83 431.475 227.145 429.068
C 222.516 427.784 217.769 425.56 213.021 424.882
C 212.382 423.016 214.45 423.154 215.551 423.207
C 219.158 423.38 222.747 423.504 226.359 423.37
C 235.97 423.015 244.932 421.787 253.814 417.953
C 255.651 417.161 257.463 416.292 259.333 415.596
C 260.133 415.298 261.144 415.108 261.441 414.254 Z"
opacity="1" fill="rgb(1,218,254)" fill-rule="evenodd" />
<path d="
M 260.91 602.596
C 266.577 602.17 272.328 602.359 278.011 602.39
C 280.895 602.405 284.337 601.929 287.149 602.586
C 288.444 607.187 290.414 611.708 292.136 616.165
C 295.813 625.678 299.382 635.231 303.226 644.68
C 304.624 648.116 305.991 651.593 307.266 655.076
C 307.691 656.24 308.174 658.724 309.05 659.536
C 313.639 647.165 317.909 634.628 322.514 622.243
C 324.968 615.645 327.071 608.901 329.941 602.467
C 338.334 601.895 347.107 602.15 355.512 602.445
C 353.353 608.557 350.18 614.406 347.813 620.461
C 340.09 640.215 331.809 659.744 323.882 679.416
C 321.023 686.51 318.08 693.546 314.844 700.476
C 312.354 705.808 309.419 711.377 304.674 715.061
C 294.346 723.079 282.038 722.089 269.795 721.646
C 269.238 719.826 269.632 717.423 269.609 715.511
C 269.561 711.607 268.926 707.006 269.69 703.175
C 276.048 703.751 283.999 704.353 289.197 699.962
C 291.384 698.114 292.749 695.496 294.054 693.003
C 294.869 691.444 296.178 689.312 296.361 687.555
C 296.569 685.559 294.465 682.529 293.689 680.712
C 291.302 675.116 288.941 669.506 286.595 663.893
C 278.053 643.459 269.135 623.151 260.91 602.596 Z"
opacity="1" fill="rgb(1,43,86)" fill-rule="evenodd" />
<path d="
M 360.643 429.714
C 359.694 430.138 362.068 432.614 362.397 433.015
C 364.686 435.804 367.684 439.124 370.843 440.944
C 370.687 442.378 369.235 440.626 368.869 442.493
C 368.772 442.99 369.493 443.292 369.735 443.595
C 370.038 443.977 369.276 444.863 369.723 445.059
C 369.945 445.156 370.935 444.599 371.162 444.484
C 372.52 443.801 373.847 442.986 374.932 441.914
C 384.523 434.943 389.751 422.352 393.456 411.499
C 398.952 395.399 404.152 379.334 408.996 363.034
C 410.711 357.261 412.845 351.621 414.563 345.856
C 415.126 343.968 416.896 340.759 416.301 338.81
C 416.37 337.062 417.555 334.927 418.212 333.307
C 419.526 330.068 420.713 326.803 422.114 323.597
C 428.157 309.766 438.504 292.853 455.534 292.677
C 457.969 292.651 460.243 293.008 462.589 293.623
C 465.442 294.371 468.059 295.856 470.456 297.543
C 473.656 299.794 476.639 302.515 479.072 305.588
C 485.939 314.263 490.219 324.621 493.97 334.932
C 498.993 348.74 502.949 362.887 507.424 376.877
C 512.213 391.844 516.217 407.069 521.267 421.951
C 522.97 426.97 524.745 431.964 526.625 436.92
C 527.241 438.545 527.77 440.322 528.53 441.881
C 528.963 442.771 529.667 443.532 529.907 444.504
C 529.356 445.28 530.61 447.241 530.828 448.073
C 531.812 451.811 533.706 455.213 535.389 458.661
C 541.211 470.586 553.77 486.891 569.073 480.061
C 578.03 476.063 583.846 466.45 588.338 458.155
C 597.442 441.341 603.282 422.883 613.551 406.693
C 621.059 394.856 632.775 383.476 647.895 385.795
C 656.926 387.18 662.395 394.254 668.161 400.553
C 670.743 403.374 673.437 407.069 677.062 408.452
C 678.896 409.945 680.365 411.88 682.161 413.433
C 684.886 415.79 688.383 417.808 691.806 418.941
C 705.598 423.503 716.748 415.211 728.961 410.258
C 735.171 407.74 741.48 406.279 748.186 406.157
C 755.166 406.03 761.908 407.841 768.364 410.389
C 771.929 411.796 775.424 413.687 779.118 414.723
C 787.054 416.947 794.651 416.562 802.793 416.586
C 814.736 416.621 826.834 415.145 838.715 416.924
C 841.433 417.331 844.148 417.737 846.827 418.361
C 848.011 418.637 849.49 418.805 850.359 419.729
C 851.439 422.702 846.666 422.835 844.818 423.074
C 838.278 423.919 831.569 423.754 825.008 423.419
C 823.526 423.455 822.321 422.882 820.882 422.673
C 818.55 422.333 816.193 422.306 813.866 421.984
C 807.472 421.1 800.967 420.904 794.569 420.009
C 781.106 418.125 767.773 415.859 754.21 418.244
C 748.488 419.251 742.757 420.997 737.546 423.558
C 735.419 424.604 733.095 425.27 731.89 427.21
C 730.992 427.414 730.298 428.038 729.42 428.321
C 728.995 428.572 728.644 428.795 728.294 429.144
C 727.807 429.342 727.378 429.607 726.906 429.834
C 724.797 431.056 721.985 432.374 720.296 434.143
C 717.589 435.256 715.494 437.511 712.933 438.858
C 710.17 440.215 707.001 440.831 703.834 441.209
C 701.246 441.518 698.64 441.507 696.057 441.147
C 682.062 439.197 674.585 426.021 666.123 416.418
C 661.931 411.66 658.627 406.361 652.469 403.906
C 650.351 403.062 648.107 402.765 645.869 402.455
C 642.572 401.998 638.721 403.067 635.619 404.063
C 626.765 406.906 620.623 413.608 615.536 421.15
C 613.115 424.74 610.905 428.688 609.65 432.845
C 608.704 435.972 607.434 439.125 606.307 442.191
C 605.867 443.389 605.378 445.086 605.854 446.059
C 606.226 446.82 604.376 447.154 605.237 447.902
C 600.032 461.243 595.098 474.762 590.511 488.335
C 586.463 500.312 582.483 512.646 576.452 523.797
C 571.183 533.539 563.761 545.145 552.32 548.063
C 534.06 552.72 520.93 536.222 514.205 521.489
C 502.52 495.887 496.013 467.964 487.609 441.198
C 484.47 431.202 481.633 421.029 478.108 411.162
C 476.323 406.166 473.597 401.196 472.276 396.081
C 472.221 395.763 472.447 394.302 472.37 394.178
C 472.159 393.84 471.643 393.949 471.397 393.44
C 469.972 390.496 468.898 387.385 467.328 384.477
C 461.509 373.703 452.791 360.083 438.475 362.365
C 436.324 362.708 434.37 363.62 432.556 364.806
C 430.416 366.205 428.528 367.85 426.847 369.779
C 419.757 377.91 415.628 388.293 411.737 398.228
C 406.061 412.723 400.982 427.519 394.036 441.476
C 390.116 449.355 385.196 456.664 378.482 462.455
C 375.406 465.108 372.162 467.453 368.197 468.555
C 356.723 471.742 347.103 465.417 340.595 456.356
C 330.038 441.657 324.278 422.532 309.426 411.175
C 303.037 406.29 295.856 403.487 287.73 403.958
C 284.874 404.124 282.083 404.395 279.371 405.368
C 278.432 405.705 276.843 406.766 275.833 406.339
C 276.576 405.19 278.053 404.393 279.103 403.527
C 281.72 401.369 284.424 399.318 287.081 397.207
C 290.608 394.405 294.281 392.028 298.5 390.38
C 301.582 389.175 304.733 388.383 308.044 388.223
C 311.346 388.064 314.705 388.243 317.923 389.034
C 335.412 393.334 343.741 412.331 354.31 424.927
C 356.129 427.096 358.75 427.848 360.643 429.714 Z"
opacity="1" fill="rgb(1,129,185)" fill-rule="evenodd" />
<path d="
M 360.643 429.714
C 363.056 430.321 365.279 430.977 367.808 430.779
C 378.125 429.968 384.348 418.901 388.617 410.69
C 396.78 394.992 402.176 377.739 408.098 361.116
C 410.025 355.707 411.73 350.146 413.995 344.878
C 414.814 342.973 415.062 340.494 416.301 338.81
C 416.896 340.759 415.126 343.968 414.563 345.856
C 412.845 351.621 410.711 357.261 408.996 363.034
C 404.152 379.334 398.952 395.399 393.456 411.499
C 389.751 422.352 384.523 434.943 374.932 441.914
C 374.289 442.25 371.792 441.056 370.843 440.944
C 367.684 439.124 364.686 435.804 362.397 433.015
C 362.068 432.614 359.694 430.138 360.643 429.714 Z"
opacity="1" fill="rgb(3,54,105)" fill-rule="evenodd" />
<path d="
M 360.961 636.6
C 362.566 627.393 365.16 618.738 371.818 611.793
C 381.056 602.158 394.773 599.467 407.584 600.88
C 413.803 601.566 420.68 603.448 425.577 607.559
C 425.778 595.177 425.841 582.688 425.829 570.284
C 431.554 570.392 437.283 570.385 443.012 570.4
C 445.113 570.405 448.275 569.764 450.207 570.59
C 449.301 588.155 450.026 605.926 449.987 623.517
C 449.942 644.256 449.227 665.13 449.859 685.855
C 446.338 685.438 442.549 685.761 439 685.74
C 434.789 685.716 430.475 685.389 426.28 685.598
C 426.167 682.642 425.965 679.537 425.629 676.6
C 423.19 679.03 421.482 682.045 418.455 683.907
C 403.126 693.334 379.924 688.485 369.277 674.373
C 361.378 663.904 359.449 649.364 360.961 636.6 Z
M 385.478 642.126
C 384.9 651.276 387.021 662.41 395.21 667.743
C 404.373 673.711 419.755 671.108 424.536 660.655
C 425.364 658.846 425.437 656.933 425.582 654.982
C 426.128 647.619 425.663 640.113 425.723 632.733
C 425.741 630.533 426.527 626.114 425.078 624.295
C 423.052 621.753 419.947 620.064 416.91 619.077
C 409.294 616.602 398.584 617.009 392.608 623.027
C 387.612 628.057 385.911 635.278 385.478 642.126 Z"
opacity="1" fill="rgb(1,43,86)" fill-rule="evenodd" />
<path d="
M 370.843 440.944
C 371.792 441.056 374.289 442.25 374.932 441.914
C 373.847 442.986 372.52 443.801 371.162 444.484
C 370.935 444.599 369.945 445.156 369.723 445.059
C 369.276 444.863 370.038 443.977 369.735 443.595
C 369.493 443.292 368.772 442.99 368.869 442.493
C 369.235 440.626 370.687 442.378 370.843 440.944 Z"
opacity="1" fill="rgb(1,64,116)" fill-rule="evenodd" />
<path d="
M 469.855 602.781
C 475.132 601.781 481.186 602.405 486.548 602.418
C 488.504 602.423 491.52 601.792 493.296 602.693
C 493.054 606.095 492.874 610.305 493.47 613.658
C 495.699 611.88 497.024 608.987 499.337 607.138
C 504.983 602.624 511.851 601.027 518.973 601.342
C 520.85 601.425 523.142 601.302 524.923 601.932
C 523.977 606.385 523.53 610.862 523.051 615.386
C 522.837 617.398 522.205 620.217 522.669 622.174
C 520.555 621.112 517.204 621.206 514.898 621.181
C 506.853 621.096 496.906 624.191 494.432 633.016
C 493.222 637.333 493.954 642.62 493.96 647.061
C 493.973 656.046 493.952 665.03 493.951 674.016
C 493.951 676.681 493.946 679.346 493.946 682.011
C 493.946 683.2 494.205 684.654 493.89 685.795
C 486.07 685.535 477.771 685.176 469.977 685.875
C 469.689 685.597 469.803 684.761 469.796 684.369
C 469.776 683.082 469.79 681.793 469.794 680.506
C 469.808 675.506 469.831 670.506 469.807 665.506
C 469.745 652.338 469.775 639.171 469.743 626.003
C 469.724 618.293 469.338 610.477 469.855 602.781 Z"
opacity="1" fill="rgb(1,43,86)" fill-rule="evenodd" />
<path d="
M 529.907 444.504
C 531.285 446.119 532.121 448.483 533.273 450.298
C 536.512 455.402 540.538 460.072 546.142 462.611
C 556.951 467.508 565.919 457.042 571.069 449.001
C 574.764 443.234 577.427 436.812 580.087 430.521
C 586.998 414.176 592.411 396.445 601.941 381.391
C 605.2 376.243 608.596 371.216 613.48 367.434
C 615.591 365.798 618.072 364.383 620.551 363.4
C 634.356 357.928 648.033 367.477 656.061 378.108
C 660.162 383.539 663.765 389.318 667.569 394.953
C 670.64 399.502 674.086 403.858 677.062 408.452
C 673.437 407.069 670.743 403.374 668.161 400.553
C 662.395 394.254 656.926 387.18 647.895 385.795
C 632.775 383.476 621.059 394.856 613.551 406.693
C 603.282 422.883 597.442 441.341 588.338 458.155
C 583.846 466.45 578.03 476.063 569.073 480.061
C 553.77 486.891 541.211 470.586 535.389 458.661
C 533.706 455.213 531.812 451.811 530.828 448.073
C 530.61 447.241 529.356 445.28 529.907 444.504 Z"
opacity="1" fill="rgb(2,218,254)" fill-rule="evenodd" />
<path d="
M 534.969 578.097
C 536.494 567.027 551.837 563.439 559.157 571.253
C 561.986 574.273 562.783 578.482 562.206 582.485
C 560.358 595.299 541.509 597.796 535.939 586.24
C 534.817 583.913 534.619 580.632 534.969 578.097 Z"
opacity="1" fill="rgb(1,44,87)" fill-rule="evenodd" />
<path d="
M 536.483 603.595
C 536.587 602.923 536.457 603.304 537.11 602.562
C 544.641 602.115 552.641 601.913 560.158 602.616
C 561.002 603.745 560.561 607.339 560.572 608.865
C 560.613 614.743 560.692 620.65 560.492 626.512
C 560 640.953 560.146 655.636 560.58 670.076
C 560.736 675.269 560.224 680.589 560.654 685.756
C 558.626 686.323 555.627 685.721 553.499 685.715
C 547.844 685.7 542.141 685.498 536.497 685.855
C 535.87 685.448 536.327 681.838 536.331 681.002
C 536.354 676.003 536.317 671.003 536.316 666.004
C 536.313 652.169 536.328 638.333 536.377 624.497
C 536.401 617.58 535.965 610.492 536.483 603.595 Z"
opacity="1" fill="rgb(1,44,88)" fill-rule="evenodd" />
<path d="
M 572.575 602.33
C 580.598 602.122 589.156 601.796 597.143 602.574
C 598.226 604.147 598.756 606.337 599.427 608.123
C 600.66 611.411 602.003 614.655 603.215 617.953
C 606.728 627.511 610.505 636.986 613.776 646.632
C 615.03 650.33 616.302 654.035 617.729 657.67
C 617.957 658.253 618.265 660.841 618.821 660.95
C 619.746 659.751 619.933 657.241 620.418 655.797
C 621.822 651.613 623.192 647.42 624.613 643.241
C 627.799 633.869 631.124 624.545 634.497 615.238
C 635.98 611.146 637.183 606.826 638.894 602.835
C 640.472 601.786 644.442 602.493 646.311 602.498
C 652.439 602.514 658.583 602.543 664.707 602.4
C 664.89 602.494 663.914 604.186 663.822 604.427
C 661.142 609.881 659.093 615.701 656.684 621.283
C 647.473 642.623 639.621 664.563 630.198 685.818
C 628.201 686.495 625.125 685.872 623.004 685.857
C 617.564 685.82 611.949 685.549 606.527 685.977
C 604.369 682.764 603.133 678.637 601.602 675.094
C 599.028 669.142 596.446 663.185 594.136 657.121
C 589.168 644.079 583.444 631.279 578.06 618.403
C 575.879 613.189 574.183 607.69 571.782 602.596
C 572.046 602.507 572.311 602.418 572.575 602.33 Z"
opacity="1" fill="rgb(1,43,86)" fill-rule="evenodd" />
<path d="
M 712.933 438.858
C 711.884 440.063 710.241 440.828 708.912 441.691
C 706.579 443.207 704.34 444.864 701.933 446.264
C 698.284 448.386 694.518 450.356 690.351 451.236
C 687.866 451.76 685.372 451.863 682.846 451.617
C 679.77 451.318 676.597 450.861 673.732 449.636
C 665.214 445.997 659.046 438.29 653.846 430.933
C 650.414 426.078 647.013 419.232 641.99 415.865
C 640.485 414.856 638.749 413.943 636.982 413.509
C 624.783 410.516 617.383 422.768 612.489 431.678
C 609.719 436.721 606.94 442.403 605.237 447.902
C 604.376 447.154 606.226 446.82 605.854 446.059
C 605.378 445.086 605.867 443.389 606.307 442.191
C 607.434 439.125 608.704 435.972 609.65 432.845
C 610.905 428.688 613.115 424.74 615.536 421.15
C 620.623 413.608 626.765 406.906 635.619 404.063
C 638.721 403.067 642.572 401.998 645.869 402.455
C 648.107 402.765 650.351 403.062 652.469 403.906
C 658.627 406.361 661.931 411.66 666.123 416.418
C 674.585 426.021 682.062 439.197 696.057 441.147
C 698.64 441.507 701.246 441.518 703.834 441.209
C 707.001 440.831 710.17 440.215 712.933 438.858 Z"
opacity="1" fill="rgb(3,76,129)" fill-rule="evenodd" />
<path d="
M 668.448 657.6
C 668.985 654.223 669.739 651.036 671.441 648.026
C 679.006 634.647 698.551 634.343 712.011 634.391
C 716.514 634.406 721.311 634.225 725.775 634.85
C 725.19 631.333 725.778 627.932 723.95 624.64
C 721.704 620.597 717.458 619.189 713.19 618.378
C 704.594 616.746 694.407 618.019 686.095 620.559
C 683.917 621.224 681.821 622.143 679.776 623.141
C 679.031 623.505 678.235 624.186 677.413 624.306
C 676.776 621.088 676.236 617.858 675.568 614.645
C 675.158 612.675 674.27 610.443 674.233 608.443
C 681.861 604.395 690.031 602.452 698.594 601.606
C 705.31 600.942 712.187 600.811 718.914 601.455
C 723.235 601.869 727.504 602.812 731.58 604.31
C 733.893 605.16 736.352 606.216 738.357 607.665
C 746.526 613.567 748.881 623.545 749.489 633.012
C 750.306 645.738 749.424 658.75 749.453 671.516
C 749.464 676.109 748.917 681.065 749.55 685.616
C 747.845 686.32 744.854 685.708 742.998 685.708
C 737.672 685.708 732.322 685.609 727.002 685.852
C 726.608 685.311 726.782 684.191 726.762 683.511
C 726.7 681.358 726.77 679.155 726.555 677.014
C 724.87 677.72 723.592 679.948 722.149 681.098
C 719.075 683.55 715.097 685.415 711.329 686.501
C 695.102 691.176 672.397 686.116 668.831 667.203
C 668.246 664.099 668.085 660.736 668.448 657.6 Z
M 691.937 657.589
C 690.729 664.117 694.477 669.424 700.819 670.958
C 707.873 672.665 717.542 671.61 723.215 666.734
C 723.846 666.192 724.744 665.472 725.143 664.731
C 725.647 663.794 725.379 662.378 725.51 661.344
C 725.958 657.817 725.947 653.772 725.635 650.237
C 717.891 649.842 710.143 649.426 702.431 650.569
C 697.767 651.26 693.631 652.933 691.937 657.589 Z"
opacity="1" fill="rgb(1,43,86)" fill-rule="evenodd" />
<path d="
M 726.906 429.834
C 725.278 431.502 722.411 433.153 720.296 434.143
C 721.985 432.374 724.797 431.056 726.906 429.834 Z"
opacity="1" fill="rgb(3,76,129)" fill-rule="evenodd" />
<path d="
M 729.42 428.321
C 729.068 428.713 728.766 428.911 728.294 429.144
C 728.644 428.795 728.995 428.572 729.42 428.321 Z"
opacity="1" fill="rgb(3,76,129)" fill-rule="evenodd" />
<path d="
M 825.008 423.419
C 821.482 424.206 817.633 422.929 814 423.519
C 811.265 423.963 808.599 424.904 805.885 425.467
C 796.948 427.324 787.183 429.267 778.02 428.594
C 766.84 427.773 755.994 423.928 744.699 424.217
C 742.057 424.284 739.232 424.557 736.701 425.336
C 735.072 425.837 733.554 426.88 731.89 427.21
C 733.095 425.27 735.419 424.604 737.546 423.558
C 742.757 420.997 748.488 419.251 754.21 418.244
C 767.773 415.859 781.106 418.125 794.569 420.009
C 800.967 420.904 807.472 421.1 813.866 421.984
C 816.193 422.306 818.55 422.333 820.882 422.673
C 822.321 422.882 823.526 423.455 825.008 423.419 Z"
opacity="1" fill="rgb(3,76,129)" fill-rule="evenodd" />
<path d="
M 757.75 686.218
C 759.832 684.148 761.436 681.432 763.267 679.127
C 767.49 673.813 771.723 668.442 776.064 663.227
C 781.41 656.804 786.344 650.007 791.745 643.64
C 801.219 632.471 810.489 621.042 819.405 609.422
C 825.353 601.671 831.361 593.968 837.373 586.273
C 839.204 583.93 841.067 581.516 843.038 579.29
C 843.752 578.484 844.531 577.333 845.544 576.887
C 846.402 576.509 847.618 576.711 848.527 576.71
C 850.52 576.708 852.516 576.737 854.509 576.777
C 861.156 576.909 868.105 576.032 874.703 576.678
C 875.061 577.101 873.983 577.816 873.653 578.177
C 872.375 579.573 871.13 580.992 869.956 582.476
C 864.85 588.926 859.604 595.309 854.682 601.9
C 848.543 610.118 842.097 618.157 835.665 626.148
C 832.803 629.703 829.491 632.885 826.672 636.482
C 819.95 645.059 813.403 653.766 806.64 662.31
C 802.074 668.078 797.219 673.594 792.63 679.342
C 791.046 681.326 789.091 684.985 786.765 686.087
C 784.454 686.546 781.852 686.231 779.502 686.234
C 774.835 686.241 770.168 686.188 765.502 686.186
C 763.544 686.185 761.592 686.222 759.636 686.265
C 759.085 686.277 758.224 686.498 757.75 686.218 Z"
opacity="1" fill="rgb(1,157,208)" fill-rule="evenodd" />
<path d="
M 759.346 576.605
C 766 577.144 772.824 576.828 779.505 576.812
C 782.268 576.806 786.058 576.161 788.665 577.132
C 790.633 578.602 792.171 581.084 793.713 582.987
C 797.747 587.967 801.253 593.381 805.338 598.315
C 807.357 600.754 809.386 603.182 811.405 605.623
C 812.209 606.595 813.595 607.749 814.011 608.946
C 813.174 610.989 811.018 612.641 809.673 614.37
C 806.204 618.83 802.744 623.401 799.454 627.984
C 798.258 627.313 797.376 625.431 796.49 624.375
C 793.706 621.053 791.113 617.572 788.341 614.239
C 780.537 604.854 773.135 595.034 766.015 585.126
C 763.915 582.204 761.329 579.599 759.346 576.605 Z"
opacity="1" fill="rgb(1,197,246)" fill-rule="evenodd" />
<path d="
M 819.92 651.985
C 824.404 645.884 828.948 639.646 833.887 633.907
C 834.653 633.799 835.414 635.375 835.885 636.004
C 837.775 638.526 839.887 640.926 841.929 643.327
C 850.601 653.52 858.807 664.306 866.926 674.947
C 869.156 677.869 871.642 680.604 873.831 683.559
C 874.053 683.86 875.888 685.918 875.809 686.069
C 869.133 686.494 862.215 685.835 855.503 685.914
C 853.356 685.939 851.212 685.961 849.065 685.932
C 848.195 685.92 846.958 686.151 846.132 685.824
C 845.1 685.414 844.254 684.035 843.572 683.213
C 841.865 681.155 840.177 679.084 838.492 677.008
C 834.939 672.632 831.499 668.161 828.104 663.662
C 825.321 659.973 821.893 656.482 819.557 652.491
C 819.678 652.322 819.799 652.153 819.92 651.985 Z"
opacity="1" fill="rgb(1,56,104)" fill-rule="evenodd" />

</svg>